<svg width="32" height="19" viewBox="0 0 32 19" fill="none" xmlns="http://www.w3.org/2000/svg">
<path d="M3.70474 18.25H11.5848C13.0905 18.25 14.3158 17.0826 14.3158 15.6481C14.3158 14.7427 13.8257 13.9126 13.0252 13.4404C13.0279 13.3989 13.0279 13.36 13.0279 13.3185C13.0279 11.5104 11.484 10.0395 9.58616 10.0395C8.63315 10.0395 7.72643 10.4156 7.07566 11.0772C6.85511 11.0356 6.64 11.0149 6.42762 11.0149C5.009 11.0149 3.74558 11.8424 3.22824 13.0876C1.93215 13.3029 0.973694 14.3743 0.973694 15.6481C0.973694 17.0826 2.19899 18.25 3.70474 18.25Z" fill="white"/>
<path d="M21.0468 8.49999H28.9269C30.4326 8.49999 31.6579 7.33261 31.6579 5.89804C31.6579 4.99268 31.1678 4.16254 30.3673 3.69041C30.37 3.6489 30.37 3.60999 30.37 3.56848C30.37 1.76035 28.8261 0.289459 26.9283 0.289459C25.9753 0.289459 25.0685 0.665613 24.4178 1.32712C24.1972 1.28562 23.9821 1.26486 23.7697 1.26486C22.3511 1.26486 21.0877 2.0924 20.5703 3.3376C19.2742 3.55292 18.3158 4.62431 18.3158 5.89804C18.3158 7.33261 19.5411 8.49999 21.0468 8.49999Z" fill="white"/>
</svg>
