<svg width="214" height="215" viewBox="0 0 214 215" fill="none" xmlns="http://www.w3.org/2000/svg">
<path d="M106.997 0.373016C48.0433 0.373016 0.0806885 48.3356 0.0806885 107.289C0.0806885 166.243 48.0433 214.205 106.997 214.205C165.95 214.205 213.913 166.243 213.913 107.289C213.913 48.3356 165.95 0.373016 106.997 0.373016ZM196.602 136.799C192.573 134.054 187.709 132.445 182.467 132.445C168.574 132.445 157.31 143.709 157.31 157.602C157.31 166.396 161.823 174.133 168.658 178.629C152.11 192.951 130.548 201.626 106.997 201.626C54.979 201.626 12.6591 159.306 12.6591 107.289C12.6591 55.2707 54.979 12.9508 106.997 12.9508C159.015 12.9508 201.335 55.2707 201.335 107.289C201.335 117.591 199.669 127.511 196.602 136.799V136.799Z" fill="#606060"/>
<path d="M75.5509 94.7108C85.9712 94.7108 94.4185 86.2635 94.4185 75.8432C94.4185 65.423 85.9712 56.9757 75.5509 56.9757C65.1307 56.9757 56.6834 65.423 56.6834 75.8432C56.6834 86.2635 65.1307 94.7108 75.5509 94.7108Z" fill="#606060"/>
<path d="M44.1048 119.867C51.0515 119.867 56.6829 114.236 56.6829 107.289C56.6829 100.342 51.0515 94.7108 44.1048 94.7108C37.1581 94.7108 31.5266 100.342 31.5266 107.289C31.5266 114.236 37.1581 119.867 44.1048 119.867Z" fill="#606060"/>
<path d="M119.575 182.759C126.522 182.759 132.153 177.127 132.153 170.181C132.153 163.234 126.522 157.603 119.575 157.603C112.628 157.603 106.997 163.234 106.997 170.181C106.997 177.127 112.628 182.759 119.575 182.759Z" fill="#606060"/>
<path d="M169.889 88.4214C173.362 88.4214 176.178 85.6056 176.178 82.1323C176.178 78.6589 173.362 75.8432 169.889 75.8432C166.415 75.8432 163.599 78.6589 163.599 82.1323C163.599 85.6056 166.415 88.4214 169.889 88.4214Z" fill="#606060"/>
<path d="M125.864 44.3971C129.338 44.3971 132.153 41.5814 132.153 38.108C132.153 34.6346 129.338 31.8189 125.864 31.8189C122.391 31.8189 119.575 34.6346 119.575 38.108C119.575 41.5814 122.391 44.3971 125.864 44.3971Z" fill="#606060"/>
<path d="M94.4184 126.156C97.8917 126.156 100.707 123.341 100.707 119.867C100.707 116.394 97.8917 113.578 94.4184 113.578C90.945 113.578 88.1293 116.394 88.1293 119.867C88.1293 123.341 90.945 126.156 94.4184 126.156Z" fill="#606060"/>
</svg>
