<svg width="24" height="17" viewBox="0 0 24 17" fill="none" xmlns="http://www.w3.org/2000/svg">
<path d="M8.42383 6.71854C10.089 6.71854 11.4437 5.36383 11.4437 3.69867C11.4437 2.03352 10.089 0.678802 8.42383 0.678802C6.75867 0.678802 5.40396 2.03352 5.40396 3.69867C5.40396 5.36383 6.7586 6.71854 8.42383 6.71854V6.71854ZM8.42383 2.18874C9.25641 2.18874 9.93376 2.86609 9.93376 3.69867C9.93376 4.53125 9.25641 5.20861 8.42383 5.20861C7.59125 5.20861 6.9139 4.53125 6.9139 3.69867C6.9139 2.86609 7.59125 2.18874 8.42383 2.18874Z" fill="#FFF29E"/>
<path d="M23.3226 9.96284C23.3206 9.96284 23.3187 9.96264 23.3168 9.96264C22.7817 9.97613 22.2742 9.77836 21.8872 9.40886C21.5003 9.03936 21.2803 8.54133 21.268 8.00644C21.2674 7.98341 21.2658 7.96064 21.263 7.93827C21.2212 7.60429 20.9336 7.34864 20.5908 7.35451C20.5889 7.35451 20.5869 7.35431 20.585 7.35431C20.4007 7.35858 20.2355 7.43717 20.1175 7.56076C19.9996 7.68435 19.9287 7.85294 19.9329 8.03729C19.9453 8.57218 19.7486 9.07989 19.3791 9.46688C19.0097 9.85381 18.5116 10.0737 17.9767 10.0861C17.6081 10.0946 17.3161 10.4004 17.3247 10.7691C17.3251 10.7854 17.3267 10.8013 17.3282 10.8173C17.3288 10.8237 17.3288 10.8302 17.3296 10.8364C17.3313 10.8499 17.3341 10.8629 17.3365 10.876C17.3381 10.8847 17.3392 10.8935 17.341 10.902C17.3438 10.9141 17.3475 10.9257 17.3509 10.9375C17.3535 10.9467 17.3557 10.9562 17.3587 10.9652C17.3623 10.976 17.3668 10.9863 17.3709 10.9968C17.3748 11.0064 17.3781 11.0163 17.3823 11.0257C17.3864 11.0349 17.3913 11.0437 17.3959 11.0527C17.401 11.063 17.4059 11.0734 17.4115 11.0834C17.4157 11.0907 17.4205 11.0976 17.4249 11.1047C17.4318 11.1159 17.4385 11.1272 17.4461 11.1378C17.4498 11.1431 17.454 11.148 17.4579 11.1531C17.4669 11.1652 17.4759 11.1772 17.4857 11.1887C17.4886 11.192 17.4919 11.1951 17.4948 11.1984C17.5062 11.2111 17.5178 11.2236 17.5301 11.2354C17.532 11.2373 17.5341 11.2389 17.5361 11.2407C17.5498 11.2536 17.564 11.2661 17.5788 11.2778C17.5797 11.2785 17.5805 11.2791 17.5814 11.2797C17.648 11.3317 17.7245 11.3713 17.8077 11.3952C17.8085 11.3954 17.8094 11.3956 17.8102 11.3958C17.83 11.4014 17.8501 11.4063 17.8707 11.4101C17.8741 11.4107 17.8776 11.4111 17.8811 11.4116C17.8989 11.4146 17.9168 11.4171 17.935 11.4187C17.9425 11.4193 17.95 11.4194 17.9575 11.4198C17.969 11.4204 17.9803 11.4215 17.992 11.4215C17.9972 11.4215 18.0024 11.4215 18.0077 11.4214C18.5414 11.4081 19.0502 11.6057 19.4372 11.9752C19.8242 12.3447 20.0441 12.8427 20.0565 13.3776C20.0623 13.6275 20.2045 13.8421 20.4104 13.9518C20.504 14.0016 20.6107 14.0298 20.7237 14.0298C20.7289 14.0298 20.7342 14.0297 20.7394 14.0296C20.9237 14.0253 21.0889 13.9467 21.2069 13.8232C21.3249 13.6996 21.3958 13.531 21.3915 13.3466C21.3791 12.8117 21.5758 12.304 21.9453 11.917C22.3148 11.5301 22.8128 11.3102 23.3477 11.2978H23.3477C23.7164 11.2893 24.0084 10.9835 23.9998 10.6148C23.9912 10.2481 23.6895 9.95964 23.3226 9.96284V9.96284Z" fill="#FFF29E"/>
<path d="M4.85559 13.4395C4.85402 13.4395 4.85245 13.4394 4.85089 13.4394C4.41778 13.4503 4.00688 13.2902 3.6936 12.9911C3.38038 12.6919 3.20234 12.2888 3.19234 11.8558C3.1919 11.8371 3.19055 11.8187 3.18828 11.8006C3.1545 11.5302 2.92165 11.3233 2.64415 11.328C2.64259 11.328 2.64102 11.3279 2.63945 11.3279C2.49027 11.3313 2.35655 11.3949 2.26104 11.495C2.16553 11.595 2.10813 11.7315 2.11159 11.8807C2.12164 12.3137 1.96241 12.7247 1.66329 13.038C1.36417 13.3513 0.96101 13.5293 0.528009 13.5393C0.229594 13.5462 -0.00677042 13.7938 0.000148087 14.0922C0.000472392 14.1054 0.00176961 14.1183 0.00301278 14.1313C0.00349924 14.1364 0.00349924 14.1416 0.00414785 14.1467C0.00549912 14.1576 0.00776926 14.1681 0.00971509 14.1788C0.0110123 14.1857 0.0118771 14.1929 0.0133905 14.1998C0.0156066 14.2096 0.0186335 14.219 0.0213901 14.2286C0.023498 14.236 0.0252817 14.2436 0.027714 14.251C0.0306328 14.2597 0.0342542 14.268 0.0376053 14.2765C0.0406862 14.2843 0.0433888 14.2923 0.046794 14.3C0.0501451 14.3074 0.0540908 14.3145 0.0577663 14.3218C0.0619282 14.3301 0.0658739 14.3386 0.0704682 14.3467C0.0738194 14.3526 0.077711 14.3581 0.0812784 14.3639C0.0868997 14.3729 0.0923048 14.3821 0.0984125 14.3907C0.101439 14.395 0.104845 14.3989 0.10798 14.4031C0.115276 14.4129 0.122573 14.4226 0.130519 14.4318C0.132843 14.4345 0.135491 14.437 0.13787 14.4397C0.147058 14.45 0.156463 14.4602 0.166408 14.4697C0.167976 14.4712 0.169652 14.4725 0.171273 14.474C0.182408 14.4844 0.193866 14.4945 0.205866 14.504C0.206568 14.5045 0.207271 14.505 0.207974 14.5056C0.261862 14.5477 0.323804 14.5797 0.391152 14.5991C0.3918 14.5992 0.392503 14.5994 0.393152 14.5996C0.409205 14.6041 0.425528 14.608 0.442176 14.6111C0.444932 14.6116 0.447743 14.6119 0.450554 14.6123C0.464985 14.6148 0.479471 14.6168 0.494227 14.618C0.500281 14.6186 0.506388 14.6186 0.512442 14.619C0.521739 14.6195 0.530927 14.6204 0.540332 14.6204C0.544548 14.6204 0.548818 14.6203 0.553034 14.6203C0.985116 14.6095 1.39698 14.7694 1.71032 15.0686C2.02354 15.3677 2.20158 15.7709 2.21158 16.2039C2.21629 16.4061 2.33141 16.5798 2.49811 16.6686C2.57389 16.709 2.66026 16.7318 2.75171 16.7318C2.75593 16.7318 2.7602 16.7318 2.76447 16.7317C2.91365 16.7282 3.04737 16.6646 3.14288 16.5645C3.23839 16.4645 3.29579 16.328 3.29233 16.1788C3.28228 15.7458 3.44151 15.3348 3.74063 15.0215C4.03975 14.7083 4.44291 14.5302 4.87591 14.5202H4.87597C5.17438 14.5133 5.41074 14.2657 5.40383 13.9673C5.39685 13.6704 5.1526 13.4369 4.85559 13.4395V13.4395Z" fill="#FFF29E"/>
</svg>
